<?xml version="1.0" encoding="UTF-8" standalone="no"?>
<svg
   xmlns:dc="http://purl.org/dc/elements/1.1/"
   xmlns:cc="http://creativecommons.org/ns#"
   xmlns:rdf="http://www.w3.org/1999/02/22-rdf-syntax-ns#"
   xmlns:svg="http://www.w3.org/2000/svg"
   xmlns="http://www.w3.org/2000/svg"
   xmlns:sodipodi="http://sodipodi.sourceforge.net/DTD/sodipodi-0.dtd"
   xmlns:inkscape="http://www.inkscape.org/namespaces/inkscape"
   id="svg2"
   version="1.1"
   inkscape:version="1.0.2-2 (e86c870879, 2021-01-15)"
   width="156"
   height="180"
   xml:space="preserve"
   sodipodi:docname="HNOpenDatamitRot.svg"><metadata
     id="metadata8"><rdf:RDF><cc:Work
         rdf:about=""><dc:format>image/svg+xml</dc:format><dc:type
           rdf:resource="http://purl.org/dc/dcmitype/StillImage" /><dc:title></dc:title></cc:Work></rdf:RDF></metadata><defs
     id="defs6"><clipPath
       clipPathUnits="userSpaceOnUse"
       id="clipPath24"><path
         d="m 0,198.425 198.425,0 L 198.425,0 0,0 0,198.425 z"
         id="path26"
         inkscape:connector-curvature="0" /></clipPath></defs><sodipodi:namedview
     pagecolor="#ffffff"
     bordercolor="#666666"
     borderopacity="1"
     objecttolerance="10"
     gridtolerance="10"
     guidetolerance="10"
     inkscape:pageopacity="0"
     inkscape:pageshadow="2"
     inkscape:window-width="1920"
     inkscape:window-height="1017"
     id="namedview4"
     showgrid="false"
     inkscape:zoom="3.7388889"
     inkscape:cx="48.546057"
     inkscape:cy="87.700625"
     inkscape:window-x="1912"
     inkscape:window-y="-8"
     inkscape:window-maximized="1"
     inkscape:current-layer="g10"
     showguides="true"
     inkscape:guide-bbox="true"
     inkscape:document-rotation="0" /><g
     id="g10"
     inkscape:groupmode="layer"
     inkscape:label="Codefor_Hex_sticker_ALL"
     transform="matrix(1.25,0,0,-1.25,0,180)"><path
       sodipodi:nodetypes="ccccc"
       id="path3176"
       style="fill:#666666;fill-opacity:1;fill-rule:nonzero;stroke:none"
       d="M 62.4,72 0,108 l 0,0 62.4,36 c 0,0 0.02874,-71.999977 0,-72 z"
       inkscape:connector-curvature="0" /><path
       inkscape:connector-curvature="0"
       d="m 62.399973,72 62.399997,36 0,0 -62.399997,36 c -0.300945,0 -0.298879,-71.999977 0,-72 z"
       style="fill:#666666;fill-opacity:1;fill-rule:nonzero;stroke:none"
       id="path3178"
       sodipodi:nodetypes="ccccc" /><path
       inkscape:connector-curvature="0"
       d="M 62.4,0 0,36 0,36 62.4,72 c 0,0 0.02874,-71.999977240587 0,-72 z"
       style="fill:#666666;fill-opacity:1;fill-rule:nonzero;stroke:none"
       id="path2988"
       sodipodi:nodetypes="ccccc" /><path
       inkscape:connector-curvature="0"
       d="M 62.376794,72.005095 C 42.644373,58.943991 22.551707,46.242983 0,36 l 0,0 0.02308996,71.97025 C 1.223723,109.17038 64.033024,73.67117 62.376794,72.005095 z"
       style="fill:#ff6666;fill-opacity:1;fill-rule:nonzero;stroke:none"
       id="path3180"
       sodipodi:nodetypes="ccccc" /><path
       sodipodi:nodetypes="ccccc"
       id="path3182"
       style="fill:#666666;fill-opacity:1;fill-rule:nonzero;stroke:none"
       d="M 62.423396,71.994906 C 82.155817,85.05601 102.24848,97.757018 124.80019,108 l 0,0 -0.0231,-71.970249 c -1.20063,-1.20013 -64.009934,34.29908 -62.353704,35.965155 z"
       inkscape:connector-curvature="0" /><path
       sodipodi:nodetypes="ccccc"
       id="path3174"
       style="fill:#666666;fill-opacity:1;fill-rule:nonzero;stroke:none"
       d="m 62.376794,0.005095 62.399986,36 v 0 l -62.399986,36 c -1.49898,-1.124229 -0.7564,-72.545722 0,-72 z"
       inkscape:connector-curvature="0" /><path
       style="fill:#000000;stroke:#000000;stroke-width:0.00597361"
       inkscape:connector-curvature="0"
       d="m 143.63726,30.688528 c -0.0306,-0.03377 -0.0306,-0.03377 0,0 z"
       id="path25290" /><text
       xml:space="preserve"
       style="font-style:normal;font-variant:normal;font-weight:normal;font-stretch:normal;font-size:29.8667px;line-height:1.25;font-family:Algerian;-inkscape-font-specification:Algerian;fill:#000000;fill-opacity:1;stroke:none;stroke-width:0.8"
       x="62.887173"
       y="-100.32587"
       id="text863"
       transform="scale(1,-1)"><tspan
         sodipodi:role="line"
         id="tspan861"
         x="62.887173"
         y="-100.32587"
         style="font-style:normal;font-variant:normal;font-weight:normal;font-stretch:normal;font-size:29.8667px;font-family:'Century Gothic';-inkscape-font-specification:'Century Gothic';text-align:center;text-anchor:middle;stroke-width:0.8">HN</tspan><tspan
         sodipodi:role="line"
         x="62.887173"
         y="-62.515118"
         style="font-style:normal;font-variant:normal;font-weight:normal;font-stretch:normal;font-size:29.8667px;font-family:'Century Gothic';-inkscape-font-specification:'Century Gothic';text-align:center;text-anchor:middle;stroke-width:0.8"
         id="tspan865">Open</tspan><tspan
         sodipodi:role="line"
         x="62.887173"
         y="-24.70437"
         style="font-style:normal;font-variant:normal;font-weight:normal;font-stretch:normal;font-size:29.8667px;font-family:'Century Gothic';-inkscape-font-specification:'Century Gothic';text-align:center;text-anchor:middle;stroke-width:0.8"
         id="tspan867">Data</tspan></text><path
       style="fill:#ff6666;stroke:#ff6666;stroke-width:0.712921px;stroke-linecap:butt;stroke-linejoin:miter;stroke-opacity:1;fill-opacity:1"
       d="m 28.129003,60.044649 c 6.579642,16.605858 7.39878,34.233897 6.579642,16.605858 -0.819141,-17.62804 4.554394,-18.344875 -0.819141,-17.62804"
       id="path956" /><path
       style="fill:#666666;stroke:#666666;stroke-width:0.590036px;stroke-linecap:butt;stroke-linejoin:miter;stroke-opacity:1"
       d="M 24.024865,42.421303 C 49.452377,22.206124 75.471223,8.434532 49.452377,22.07978 23.433528,35.725022 20.378284,30.923919 23.433528,35.725022"
       id="path958" /></g></svg>
