<?xml version="1.0" encoding="UTF-8" standalone="no"?>
<svg
   xmlns:dc="http://purl.org/dc/elements/1.1/"
   xmlns:cc="http://creativecommons.org/ns#"
   xmlns:rdf="http://www.w3.org/1999/02/22-rdf-syntax-ns#"
   xmlns:svg="http://www.w3.org/2000/svg"
   xmlns="http://www.w3.org/2000/svg"
   xmlns:sodipodi="http://sodipodi.sourceforge.net/DTD/sodipodi-0.dtd"
   xmlns:inkscape="http://www.inkscape.org/namespaces/inkscape"
   id="svg2"
   version="1.1"
   inkscape:version="1.0.2-2 (e86c870879, 2021-01-15)"
   width="156"
   height="180"
   xml:space="preserve"
   sodipodi:docname="HeilbronnmitLogo.svg"><metadata
     id="metadata8"><rdf:RDF><cc:Work
         rdf:about=""><dc:format>image/svg+xml</dc:format><dc:type
           rdf:resource="http://purl.org/dc/dcmitype/StillImage" /><dc:title /></cc:Work></rdf:RDF></metadata><defs
     id="defs6"><clipPath
       clipPathUnits="userSpaceOnUse"
       id="clipPath24"><path
         d="m 0,198.425 198.425,0 L 198.425,0 0,0 0,198.425 z"
         id="path26"
         inkscape:connector-curvature="0" /></clipPath></defs><sodipodi:namedview
     pagecolor="#ffffff"
     bordercolor="#666666"
     borderopacity="1"
     objecttolerance="10"
     gridtolerance="10"
     guidetolerance="10"
     inkscape:pageopacity="0"
     inkscape:pageshadow="2"
     inkscape:window-width="1920"
     inkscape:window-height="1017"
     id="namedview4"
     showgrid="false"
     inkscape:zoom="5.2875874"
     inkscape:cx="63.914335"
     inkscape:cy="93.465798"
     inkscape:window-x="-8"
     inkscape:window-y="-4"
     inkscape:window-maximized="1"
     inkscape:current-layer="g10"
     showguides="true"
     inkscape:guide-bbox="true"
     inkscape:document-rotation="0" /><g
     id="g10"
     inkscape:groupmode="layer"
     inkscape:label="Codefor_Hex_sticker_ALL"
     transform="matrix(1.25,0,0,-1.25,0,180)"><path
       sodipodi:nodetypes="ccccc"
       id="path3176"
       style="fill:#ff3e2f;fill-opacity:1;fill-rule:nonzero;stroke:#000000;stroke-opacity:0.02"
       d="M 62.400005,73.210382 4.8091757e-6,109.21038 v 0 l 62.4000001908243,36 c 0,0 0.02874,-71.999975 0,-71.999998 z"
       inkscape:connector-curvature="0" /><path
       inkscape:connector-curvature="0"
       d="m 62.399978,73.210382 62.399992,35.999998 v 0 l -62.399992,36 c -0.300945,0 -0.298879,-71.999975 0,-71.999998 z"
       style="fill:#ff3e2f;fill-opacity:1;fill-rule:nonzero;stroke:#000000;stroke-opacity:0.02"
       id="path3178"
       sodipodi:nodetypes="ccccc" /><path
       inkscape:connector-curvature="0"
       d="M 62.400005,1.2103822 4.8091757e-6,37.210382 v 0 l 62.4000001908243,36 c 0,0 0.02874,-71.999977 0,-71.9999998 z"
       style="fill:#006dff;fill-opacity:1;fill-rule:nonzero;stroke:#000000;stroke-opacity:0.02"
       id="path2988"
       sodipodi:nodetypes="ccccc" /><path
       inkscape:connector-curvature="0"
       d="M 62.376799,73.215477 C 42.644378,60.154373 22.551712,47.453365 4.8091757e-6,37.210382 v 0 L 0.02309477,109.18063 C 1.2237278,110.38076 64.033029,74.881552 62.376799,73.215477 Z"
       style="fill:#ffffff;fill-opacity:1;fill-rule:nonzero;stroke:#000000;stroke-opacity:0.02"
       id="path3180"
       sodipodi:nodetypes="ccccc" /><path
       sodipodi:nodetypes="ccccc"
       id="path3182"
       style="fill:#ffffff;fill-opacity:1;fill-rule:nonzero;stroke:#000000;stroke-opacity:0.02"
       d="M 62.376799,73.215477 C 82.10922,86.276581 102.20188,98.977589 124.75359,109.22057 v 0 l -0.0231,-71.970248 c -1.20063,-1.20013 -64.009931,34.29908 -62.353701,35.965155 z"
       inkscape:connector-curvature="0" /><path
       sodipodi:nodetypes="ccccc"
       id="path3174"
       style="fill:#006dff;fill-opacity:1;fill-rule:nonzero;stroke:#000000;stroke-opacity:0.02"
       d="M 62.377105,1.2401332 124.77709,37.240133 v 0 l -62.399985,36 c -1.49898,-1.124229 -0.7564,-72.5457218 0,-71.9999998 z"
       inkscape:connector-curvature="0" /><path
       style="fill:#ffff00;stroke:#000000;stroke-width:0.00597361"
       inkscape:connector-curvature="0"
       d="m 143.63726,31.89891 c -0.0306,-0.03377 -0.0306,-0.03377 0,0 z"
       id="path25290" /><text
       xml:space="preserve"
       style="font-style:normal;font-variant:normal;font-weight:bold;font-stretch:normal;font-size:17.0667px;line-height:1.25;font-family:sans-serif;-inkscape-font-specification:'sans-serif Bold';fill:#000000;fill-opacity:1;stroke:none;stroke-width:0.8"
       x="17.346584"
       y="-28.13236"
       id="text879"
       transform="scale(1,-1)"><tspan
         sodipodi:role="line"
         id="tspan877"
         x="17.346584"
         y="-28.13236"
         style="font-style:normal;font-variant:normal;font-weight:bold;font-stretch:normal;font-size:17.0667px;font-family:sans-serif;-inkscape-font-specification:'sans-serif Bold';stroke-width:0.8">Heilbronn </tspan></text><g
       id="g870"
       transform="matrix(0.2785359,0,0,-0.27553349,13.899636,162.43479)">
	<path
   class="st0"
   d="m 69.7,318 v -30.4 c 0,-8.4 0.1,-9.8 7.3,-9.8 v -7.1 H 25.9 v 7.1 c 9.6,0.3 10.4,1.5 10.4,9.8 V 365 c 0,8.3 -0.8,9.5 -10.4,9.8 v 7.1 H 77 v -7.1 c -7.2,0 -7.3,-1.4 -7.3,-9.8 v -36.5 h 24 V 365 c 0,8.3 0,9.7 -7.8,9.8 v 7.1 H 137 v -7.1 c -9.6,-0.3 -10,-1.4 -10,-9.8 v -77.4 c 0,-8.4 0.4,-9.5 10,-9.8 v -7.1 H 85.9 v 7.1 c 7.8,0.1 7.8,1.5 7.8,9.8 V 318 Z"
   id="path844" />
	<path
   class="st0"
   d="m 214.8,270.8 v 7.1 c 9.6,0.3 10,1.4 10,9.8 v 51.2 c 0,14.6 -0.2,21.7 -1,27.8 -0.6,5.9 -1.2,7.7 -5,7.9 l -4,0.3 v 7.1 h 38.3 v -7.1 l -7.7,-0.5 c -4,-0.3 -6.1,-2.1 -7.1,-8 -0.8,-5.8 -1.1,-12.8 -1.1,-27.5 v -41.4 h 1.1 c 17.8,28.4 33.4,54.3 51.4,84.5 h 25.8 v -68.1 c 0,-14.6 0.2,-21.7 1,-27.8 0.6,-5.9 2.2,-7.7 6.1,-7.9 l 3.3,-0.3 v -7.1 h -38.7 v 7.1 l 7.7,0.5 c 4,0.3 6.1,2.1 7.1,8 0.8,5.8 1.1,12.8 1.1,27.5 V 338 h -1 C 287,313.8 273.2,292.7 261.3,270.9 h -46.5 z"
   id="path846" />
	<path
   class="st0"
   d="m 375.9,273.5 c -800.48067,16.80061 -400.240336,8.40031 0,0 z"
   id="path848"
   sodipodi:nodetypes="cc" />
	
	
	
	
	<path
   class="st0"
   d="m 516.8,283.8 c -894.414,9.93394 -447.207002,4.96697 0,0 z"
   id="path858"
   sodipodi:nodetypes="cc" />
	
	
	
	<rect
   x="169.8"
   y="270.79999"
   class="st1"
   width="12.2"
   height="47.200001"
   id="rect866" />
	<rect
   x="169.8"
   y="328.60001"
   class="st2"
   width="12.2"
   height="53.299999"
   id="rect868" />
</g></g><style
     type="text/css"
     id="style842">
	.st0{fill:#231815;}
	.st1{fill:#E73736;}
	.st2{fill:#006CB6;}
</style></svg>
